<?xml version="1.0" encoding="UTF-8"?><svg xmlns="http://www.w3.org/2000/svg" viewBox="0 0 100 100"><defs><style>.cls-1{fill:#fff;}.cls-1,.cls-2{stroke-width:0px;}.cls-2{fill:#092935;}</style></defs><g id="Layer_2"><rect class="cls-2" x=".32" y="0" width="100" height="100"/></g><g id="Layer_1"><path class="cls-1" d="M25.8,64.63v-29.73h-7.56v-6.12h22.52v6.12h-7.56v29.73h-7.41ZM18.57,34.9h-6.12v-6.12h6.12v6.12Z"/><path class="cls-1" d="M56.77,61.14c-1.86,3.06-4.83,4.83-8.22,4.83-6.36,0-11.38-5.54-11.38-13.05s5.02-12.91,11.38-12.91c3.39,0,6.36,1.77,8.22,4.78v-4.11h6.64v24.57h-6.64v-4.11ZM50.18,59.8c2.97,0,5.45-1.86,6.6-4.06v-5.54c-1.19-2.2-3.63-4.06-6.6-4.06-3.49,0-6.31,2.82-6.31,6.79s2.82,6.88,6.31,6.88Z"/><path class="cls-1" d="M66.26,74.81v-5.31h2.53c1.29,0,2.01-.67,2.01-2.1v-21.32h-4.25v-5.4h4.25v-4.11c0-4.4,2.63-7.17,8.22-7.17h3.16v5.31h-2.49c-1.29,0-2.06.67-2.06,2.1v3.87h4.54v5.4h-4.54v21.56c0,4.4-2.63,7.17-8.22,7.17h-3.16Z"/><path class="cls-1" d="M16.25,33.45c2.26-.11,4.48-.47,6.66-1.07.51-.14,1-.36,1.5-.54.86,0,1.71,0,2.57,0-.26.11-.52.22-.81.35.29.07.56.13.82.2.46.12.46.12.46.6v.42c-.89-.41-1.8-.53-2.74-.5-.06,0-.11,0-.17,0-.17,0-.23.06-.23.24,0,3.43,0,6.85,0,10.28,0,.09.04.19.09.27.13.2.13.36-.01.55-.05.06-.08.15-.08.23,0,.7,0,1.4,0,2.1,0,.14.04.2.19.2.25.01.4.18.39.41,0,.21-.18.36-.42.36-.71,0-1.41,0-2.12,0-.18,0-.23.06-.23.23,0,.8,0,1.6,0,2.4,0,.66-.29.94-.94.94-.71,0-1.41,0-2.12,0-.61,0-.91-.3-.91-.91,0-.8,0-1.6,0-2.4,0-.2-.04-.27-.26-.27-.67.01-1.34,0-2.01,0-.34,0-.5-.2-.5-.37,0-.25.15-.39.49-.42.02,0,.04,0,.09-.02,0-.07.01-.15.01-.22,0-.67,0-1.34,0-2.01,0-.1-.05-.21-.11-.3-.11-.17-.11-.35.02-.51.05-.07.09-.16.09-.24,0-3.01,0-6.01,0-9.02,0-.15-.03-.21-.2-.21M15.78,34.24c-1.07.02-2.12-.11-3.16-.37-.06-.01-.12-.02-.15-.02.09.41.19.81.25,1.22M23.51,33.08s-.07-.02-.09-.01c-.06.01-.13.03-.19.04-2.02.55-4.07.91-6.16,1.08-.3.02-.3.02-.3.32,0,3.05,0,6.1,0,9.14,0,.3.11.47.35.6.59-.47,1.19-.95,1.79-1.43-.63-.84-.31-1.73.14-2.16.52-.5,1.42-.57,2-.15.32.23.53.54.62.92.13.53,0,1.01-.3,1.39.61.49,1.2.96,1.79,1.43.25-.14.36-.31.36-.6-.01-3.43,0-6.87,0-10.3,0-.09,0-.18,0-.27ZM20.14,46.78c.37,0,.74,0,1.11,0q.48,0,.48-.49c0-.58.01-1.16,0-1.73-.02-.62-.39-.95-1-.95-.39,0-.79.02-1.18,0-.65-.04-.99.52-.99.97,0,.67,0,1.34,0,2.01,0,.15.05.2.2.19.46,0,.93,0,1.39,0ZM19.74,50.33v-.25c0-.65,0-1.3,0-1.95,0-.58,0-.57-.58-.58-.18,0-.21.07-.21.22,0,.78,0,1.57,0,2.35,0,.06.01.12.02.19h.77ZM20.55,50.32h.78v-2.18c0-.6,0-.59-.59-.59-.17,0-.2.06-.2.21,0,.79,0,1.58,0,2.37,0,.06,0,.11.01.18ZM16.78,45.05c0,.57,0,1.09,0,1.61,0,.04.09.11.15.12.21.01.41,0,.62,0,.16.01.23-.04.22-.21-.01-.41,0-.81,0-1.22,0-.17,0-.35,0-.56-.33.17-.54.58-.99.26ZM22.56,44.82s-.03.03-.03.04c0,.6,0,1.2,0,1.79,0,.04.09.11.15.12.21.01.43,0,.64,0,.15,0,.2-.04.2-.19,0-.46,0-.91,0-1.37,0-.04-.02-.09-.03-.16-.42.32-.63-.11-.92-.24Z"/></g></svg>