<?xml version="1.0" encoding="UTF-8"?><svg xmlns="http://www.w3.org/2000/svg" viewBox="0 0 100 100"><defs><style>.cls-1{fill:#fff;}.cls-1,.cls-2{stroke-width:0px;}.cls-2{fill:#092935;}</style></defs><g id="Layer_2"><rect class="cls-2" x="0" y="0" width="100" height="100"/></g><g id="Layer_1"><path class="cls-1" d="M59.17,71.07c-3.5-.33-7.03-.44-10.27-1.86-2.83-1.24-4.78-3.2-6.03-5.96,3.14-.56,6.11-1.1,9.08-1.63,3.45-.62,6.92-1.19,10-2.85,2.53-1.36,4.58-3.14,5.75-5.6.43-.91,1.02-1.24,2.14-1.38,9.05-1.12,17.83-3.16,26.4-5.89.23-2.46.19-5-.23-7.62-1.26-7.83-4.77-14.42-11.12-19.34-3.02-2.34-6.36-4.06-10.23-4.31-7.34-.46-13.56,2.16-18.61,7.4-1.69,1.76-2.99,3.9-4.41,5.91-1.18,1.68-3.09,1.7-4.15-.04-.16-.26-.28-.54-.44-.8-4.77-7.82-11.66-12.11-21.64-12.67-1.28.28-3.35.49-5.23,1.2-5.64,2.14-9.89,6.04-12.91,11.2-1.73,2.96-2.93,5.98-3.68,9.04,7.59,2.42,15.37,4.15,23.36,5,4.84.51,9.74.88,14.61.84,4.1-.03,8.2-.68,12.28-1.15,5.13-.59,9.65,1.54,10.91,5.76,1.05,3.52-1.05,7.47-5.1,9.53-2.59,1.32-5.45,1.79-8.3,2.23-6.13.96-12.25,1.99-18.42,2.67-8.52.93-16.98.55-25.32-1.16,3.34,5.69,7.99,10.36,13.29,14.44,7.11,5.48,14.96,9.65,23.37,12.8,3.62,1.35,7.15,1.33,10.75-.05,6.87-2.63,13.41-5.88,19.47-10.04,2.18-1.49,4.25-3.1,6.25-4.79-7.21,0-14.41-.21-21.59-.89Z"/></g></svg>