<?xml version="1.0" encoding="UTF-8"?><svg xmlns="http://www.w3.org/2000/svg" viewBox="0 0 100 100"><defs><style>.cls-1{font-family:Roca-Bold, Roca;font-size:36.44px;font-weight:700;}.cls-1,.cls-2{fill:#fff;}.cls-2,.cls-3{stroke-width:0px;}.cls-3{fill:#092935;}</style></defs><g id="Layer_2"><rect class="cls-3" x="0" y=".33" width="100" height="100"/></g><g id="Layer_1"><text class="cls-1" transform="translate(10.59 59.87)"><tspan x="0" y="0">Taf</tspan></text><path class="cls-2" d="M82.53,48.04c-.76-.07-1.52-.09-2.22-.4-.61-.27-1.03-.69-1.31-1.29.68-.12,1.32-.24,1.97-.35.75-.13,1.5-.26,2.17-.62.55-.29.99-.68,1.25-1.21.09-.2.22-.27.46-.3,1.96-.24,3.86-.68,5.72-1.27.05-.53.04-1.08-.05-1.65-.27-1.69-1.03-3.12-2.41-4.19-.65-.51-1.38-.88-2.21-.93-1.59-.1-2.94.47-4.03,1.6-.37.38-.65.84-.95,1.28-.26.36-.67.37-.9,0-.03-.06-.06-.12-.1-.17-1.03-1.69-2.53-2.62-4.68-2.74-.28.06-.73.11-1.13.26-1.22.46-2.14,1.31-2.79,2.42-.38.64-.64,1.3-.8,1.96,1.64.52,3.33.9,5.06,1.08,1.05.11,2.11.19,3.16.18.89,0,1.77-.15,2.66-.25,1.11-.13,2.09.33,2.36,1.25.23.76-.23,1.62-1.1,2.06-.56.29-1.18.39-1.8.48-1.33.21-2.65.43-3.99.58-1.84.2-3.68.12-5.48-.25.72,1.23,1.73,2.24,2.88,3.13,1.54,1.19,3.24,2.09,5.06,2.77.78.29,1.55.29,2.33-.01,1.49-.57,2.9-1.27,4.22-2.17.47-.32.92-.67,1.35-1.04-1.56,0-3.12-.05-4.67-.19Z"/></g></svg>